<?xml version="1.0" standalone="no"?><!DOCTYPE svg PUBLIC "-//W3C//DTD SVG 1.1//EN" "http://www.w3.org/Graphics/SVG/1.1/DTD/svg11.dtd"><svg t="1491741136929" class="icon" style="" viewBox="0 0 1024 1024" version="1.1" xmlns="http://www.w3.org/2000/svg" p-id="658" xmlns:xlink="http://www.w3.org/1999/xlink" width="200" height="200"><defs><style type="text/css"></style></defs><path d="M878.407218 265.31609C761.070677-149.057444 241.525414 15.860451 127.037594 136.045714L157.834586 546.030677C157.834586 546.030677 347.775038 378.649023 455.872481 471.270977 531.094135 535.713684 408.137143 651.972331 360.786767 686.849925L384.423459 740.744662C451.868872 753.833383 527.167519 778.470977 517.851429 828.82406 503.530827 906.278496 284.564211 823.819549 284.564211 823.819549L234.057143 999.978346C234.057143 999.978346 432.312782 1034.932932 588.915489 1005.136842 539.582573 1005.67445 490.312081 1001.471892 441.782857 992.587068 441.782857 992.587068 665.753985 1015.684812 747.135038 924.833684 769.616842 895.422556 780.241805 857.234286 773.466466 807.805113 747.366015 685.233083 614.169023 688.543759 614.169023 688.543759 614.169023 688.543759 955.630677 538.177444 878.407218 265.31609M433.082707 662.905263 426.615338 666.21594C426.615338 666.21594 434.930526 660.364511 448.327218 648.892632 466.748598 633.308379 483.541897 615.895972 498.449323 596.922707 500.374135 594.381955 502.298947 591.764211 504.146767 589.223459 530.555188 549.418346 546.800602 497.679398 513.154887 444.862556 510.559853 440.919303 507.758566 437.11572 504.762707 433.467669 498.904217 426.242993 492.268604 419.684838 484.975639 413.911579 470.53257 402.248214 453.589832 394.079864 435.469474 390.04391 417.540128 386.03515 399.081737 384.943245 380.804812 386.810226 347.425262 390.472178 314.951613 399.984924 284.87218 414.912481 263.14658 425.207855 242.770159 438.137056 224.202105 453.408722 219.013708 457.823704 214.054071 462.500667 209.342556 467.421353 206.108872 470.886015 204.49203 472.810827 204.49203 472.810827 204.49203 472.810827 205.72391 470.578045 208.418647 466.651429 212.263776 460.894073 216.508823 455.414104 221.122406 450.25203 229.056202 441.442588 237.681135 433.281085 246.914887 425.845414 306.969023 370.17985 427.462256 290.107669 536.406617 410.061955 619.327519 512.461955 541.411128 613.245113 433.082707 662.905263" p-id="659"></path></svg>