<?xml version="1.0" standalone="no"?><!DOCTYPE svg PUBLIC "-//W3C//DTD SVG 1.1//EN" "http://www.w3.org/Graphics/SVG/1.1/DTD/svg11.dtd"><svg t="1491741286819" class="icon" style="" viewBox="0 0 1024 1024" version="1.1" xmlns="http://www.w3.org/2000/svg" p-id="7221" xmlns:xlink="http://www.w3.org/1999/xlink" width="200" height="200"><defs><style type="text/css"></style></defs><path d="M797.0816 705.536c0 79.469227-25.398613 149.510827-76.178773 210.1248-54.0672 63.092053-120.019627 94.6176-197.8368 94.6176-113.0496 0-197.434027-52.415147-253.1328-157.2864-28.685653-54.0672-43.008-103.621973-43.008-148.6848 0-27.0336 10.635947-54.469973 31.9488-82.3296 20.46976-27.839147 43.410773-41.7792 68.8128-41.7792 14.7456 0 24.152747 14.342827 28.2624 43.008 9.8304 72.096427 19.6608 120.4224 29.4912 144.9984 22.1184 56.5248 57.330347 84.7872 105.6768 84.7872 38.495573 0 68.8128-15.551147 90.927787-46.6944 19.667627-27.839147 29.494613-61.842773 29.494613-101.9904 0-67.986773-20.486827-111.397547-61.44-130.2528-37.690027-6.546773-75.782827-13.093547-114.2784-19.6608-40.973653-8.178347-61.44-32.754347-61.44-73.728 0-39.3216 19.237547-64.703147 57.7536-76.1856 36.037973-9.004373 72.4992-18.008747 109.3632-27.0336 38.49216-19.6608 57.7536-58.559147 57.7536-116.736 0-50.783573-20.486827-76.1856-61.44-76.1856-34.4064 0-71.693653 18.85184-111.8208 56.5248-40.97024 38.516053-68.8128 57.7536-83.5584 57.7536-48.346453 0-72.4992-26.610347-72.4992-79.872 0-41.7792 9.8304-72.4992 29.4912-92.16 10.635947-4.9152 26.207573-13.5168 46.6944-25.8048 29.4912-20.46976 58.559147-40.5504 87.2448-60.2112 31.9488-18.008747 66.757973-27.0336 104.448-27.0336 73.728 0 131.4816 22.541653 173.2608 67.584 41.7792 45.062827 62.665387 104.871253 62.665387 179.4048 0 33.600853-7.79264 68.410027-23.3472 104.448-9.826987 22.944427-24.572587 48.346453-44.233387 76.1856-15.57504 23.770453-23.3472 36.864-23.3472 39.3216l29.487787 31.9488c22.92736 25.402027 41.35936 50.804053 55.299413 76.1856C787.254613 627.316053 797.0816 666.2144 797.0816 705.536z" p-id="7222"></path></svg>