<?xml version="1.0" standalone="no"?><!DOCTYPE svg PUBLIC "-//W3C//DTD SVG 1.1//EN" "http://www.w3.org/Graphics/SVG/1.1/DTD/svg11.dtd"><svg t="1491741186419" class="icon" style="" viewBox="0 0 1024 1024" version="1.1" xmlns="http://www.w3.org/2000/svg" p-id="1995" xmlns:xlink="http://www.w3.org/1999/xlink" width="200" height="200"><defs><style type="text/css"></style></defs><path d="M382.634667 28.2624c48.708267 41.386667 105.233067 89.070933 152.1664 130.9696C389.376 404.258133 348.330667 697.6512 513.877333 679.816533c4.352-208.264533 32.631467-554.1376 64.580267-639.112533 63.266133 15.991467 136.618667 33.809067 187.7504 48.964267-12.100267 75.383467-50.466133 428.6464-48.315733 545.979733 20.394667-18.773333 40.584533-33.8944 63.1296-53.418667 19.5072 70.997333 44.868267 166.212267 50.875733 188.8256-17.066667 11.349333-71.918933 41.984-115.490133 69.239467-1.024 56.5248 0.494933 99.345067 1.160533 150.818133-39.202133-3.1232-165.5296-5.819733-199.304533-7.611733-1.041067-29.1328-3.072-79.274667-4.4032-110.8992-54.510933 1.348267-262.434133 1.348267-300.8-217.361067C174.711467 347.733333 347.818667 61.832533 382.634667 28.2624z" p-id="1996"></path></svg>