<?xml version="1.0" standalone="no"?><!DOCTYPE svg PUBLIC "-//W3C//DTD SVG 1.1//EN" "http://www.w3.org/Graphics/SVG/1.1/DTD/svg11.dtd"><svg t="1491741168887" class="icon" style="" viewBox="0 0 1024 1024" version="1.1" xmlns="http://www.w3.org/2000/svg" p-id="1880" xmlns:xlink="http://www.w3.org/1999/xlink" width="200" height="200"><defs><style type="text/css"></style></defs><path d="M740.147884 642.06078 798.908689 52.033939 626.78995 52.033939 578.137495 645.959715 577.920887 645.971749 565.574259 792.482666 566.139845 792.482666 548.402097 1009.102216 703.589348 1009.102216 725.165864 792.482666 842.085787 792.482666 842.085787 639.593861Z" p-id="1881"></path><path d="M536.681223 646.97055l-127.220815 3.068606-0.048135-0.228641c0 0-48.929231 5.643829-72.142337-28.375585-9.205819-13.489835-7.364656-43.995393-4.71723-64.849884 20.228735-127.738266 84.886079-493.829036 85.511834-497.908478L271.168543 29.157778C268.340612 47.25654 202.130914 473.287423 189.134463 563.901568c-8.243119 57.497262-18.507909 129.037911 26.49832 180.951512 27.388817 31.60063 68.363739 47.629586 121.769525 47.629586L548.678873 792.482666 536.681223 646.97055z" p-id="1882"></path></svg>