<?xml version="1.0" standalone="no"?><!DOCTYPE svg PUBLIC "-//W3C//DTD SVG 1.1//EN" "http://www.w3.org/Graphics/SVG/1.1/DTD/svg11.dtd"><svg t="1491741352362" class="icon" style="" viewBox="0 0 1024 1024" version="1.1" xmlns="http://www.w3.org/2000/svg" p-id="11256" xmlns:xlink="http://www.w3.org/1999/xlink" width="200" height="200"><defs><style type="text/css"></style></defs><path d="M566.188156 348.504322c47.580668 0 93.507674 22.900569 137.783064 68.700685 44.275389 45.801139 66.413596 113.620757 66.413595 203.460902 0 99.528807-29.076222 181.000354-87.22969 244.416685-58.153468 63.416332-133.487224 95.124498-226.003314 95.124498-60.796668 0-128.640846-16.294105-203.535603-48.883338V713.14823c65.643046 48.443315 123.574457 72.664973 173.798325 72.664973 36.125779 0 66.523089-14.862499 91.195002-44.589545 24.670889-29.726022 37.005822-67.049069 37.005822-111.969141 0-32.149211-6.497994-58.682517-19.493983-79.600942-12.995989-20.918425-29.626761-31.377638-49.892317-31.377638-21.146623 0-38.327934 13.651928-51.544957 40.955784H253.615185V63.791885h459.93725v166.468383H462.437188V390.783241c34.363645-28.185946 68.947302-42.278919 103.750968-42.278919z" p-id="11257"></path></svg>