<?xml version="1.0" standalone="no"?><!DOCTYPE svg PUBLIC "-//W3C//DTD SVG 1.1//EN" "http://www.w3.org/Graphics/SVG/1.1/DTD/svg11.dtd"><svg t="1491741233901" class="icon" style="" viewBox="0 0 1024 1024" version="1.1" xmlns="http://www.w3.org/2000/svg" p-id="4368" xmlns:xlink="http://www.w3.org/1999/xlink" width="200" height="200"><defs><style type="text/css"></style></defs><path d="M948.6208 637.9456c0 101.6992-45.2704 187.5232-135.7504 257.4944C729.824 959.8144 637.008 992 534.3872 992c-177.2608 0-313.4688-56.4352-408.6272-169.328-33.584-39.1808-50.3808-80.6848-50.3808-124.5472 0-24.2496 6.0576-46.1792 18.192-65.7728 13.9936-26.1088 33.5872-39.1808 58.7744-39.1808s47.104 18.6752 65.7696 55.9776c24.256 47.5776 63.9008 87.2448 118.9536 118.9504 55.04 30.7872 110.0704 46.1792 165.1328 46.1792 55.9744 0 107.28-16.7936 153.9392-50.3808 50.3712-36.384 75.5616-79.7664 75.5616-130.144 0-38.2432-15.8752-69.488-47.5808-93.76-31.728-24.2496-68.5696-36.384-110.5472-36.384-34.5312 0-76.976 9.3344-127.3472 27.9872-40.1216 17.7312-80.7104 34.9856-121.7536 51.7792-26.1248 11.1936-45.712 16.7936-58.7744 16.7936-30.784 0-58.7744-20.5088-83.9616-61.5712-23.3312-35.4464-34.9856-68.0928-34.9856-97.9616 0-2.8 5.1168-25.1872 15.3952-67.1712 13.9936-55.0336 20.9888-109.152 20.9888-162.3328 0-13.0528-4.1952-31.248-12.592-54.576-9.3376-23.3088-13.9936-40.5856-13.9936-51.7792 0-48.4992 22.848-72.768 68.5728-72.768 24.2464 0 48.9824 8.3968 74.1632 25.1904 25.1904 15.872 44.3008 34.5248 57.376 55.9744-0.9344 3.7408-1.3888 4.6816-1.3888 2.8 23.3024 0 75.5616-8.8544 156.7296-26.5856 92.3616-20.512 165.5872-30.7872 219.7056-30.7872 32.6496 0 63.9008 6.5376 93.76 19.5904 37.3088 16.7936 55.9744 40.1248 55.9744 69.9712 0 44.7808-46.6592 75.1104-139.9424 90.9632-104.4896 18.6752-208.512 27.9904-312.0672 27.9904-15.8752 0-34.064-1.4016-54.5728-4.1984-8.3936 86.7616-12.5952 126.4288-12.5952 118.9504 0.9216 0.944 1.856 1.4016 2.8 1.4016l22.3904-9.7984c65.2896-31.7056 127.3472-47.5808 186.1216-47.5808 99.8208 0 185.1776 26.1312 256.0928 78.3712C908.9536 463.0208 948.6208 540.928 948.6208 637.9456z" p-id="4369"></path></svg>