<?xml version="1.0" standalone="no"?><!DOCTYPE svg PUBLIC "-//W3C//DTD SVG 1.1//EN" "http://www.w3.org/Graphics/SVG/1.1/DTD/svg11.dtd"><svg t="1491741377123" class="icon" style="" viewBox="0 0 1024 1024" version="1.1" xmlns="http://www.w3.org/2000/svg" p-id="11905" xmlns:xlink="http://www.w3.org/1999/xlink" width="200" height="200"><defs><style type="text/css"></style></defs><path d="M797.0816 626.8928c0 93.3888-21.30944 176.9472-63.8976 250.6752-50.804053 88.4736-119.1936 132.7104-205.2096 132.7104-72.91904 0-140.50304-26.610347-202.748587-79.872-65.549653-55.698773-98.304-119.596373-98.304-191.6928 0-27.0336 6.546773-52.415147 19.6608-76.1856 15.551147-28.665173 36.037973-43.008 61.44-43.008 14.742187 0 28.66176 20.486827 41.7792 61.44 18.834773 56.5248 33.983147 93.812053 45.462187 111.8208 25.38496 40.973653 60.214613 61.44 104.451413 61.44 39.3216 0 70.444373-27.436373 93.385387-82.3296 17.2032-42.58816 25.808213-87.2448 25.808213-133.9392 0-90.9312-24.173227-136.3968-72.4992-136.3968-27.0336 0-59.805013 15.571627-98.304 46.6944-38.516053 31.9488-63.901013 47.9232-76.1856 47.9232-16.397653 0-36.864-16.78336-61.44-50.3808-23.770453-33.580373-35.6352-59.385173-35.6352-77.4144 0-27.0336 5.321387-67.584 15.977813-121.6512 11.461973-54.0672 17.2032-95.020373 17.2032-122.88 0-18.008747-3.283627-45.042347-9.8304-81.1008-6.567253-36.037973-9.8304-63.071573-9.8304-81.1008 0-31.9488 19.6608-47.9232 58.978987-47.9232 22.1184 0 44.2368 8.198827 66.3552 24.576 22.923947 16.397653 38.898347 35.232427 47.9232 56.5248C535.3472 59.610453 593.1008 41.984 634.88 41.984c27.839147 0 52.8384 5.741227 74.9568 17.2032 26.207573 14.7456 39.325013 34.829653 39.325013 60.2112 0 40.147627-29.088427 69.236053-87.248213 87.2448-39.3216 12.288-85.613227 18.432-138.8544 18.432-22.1184 0-39.744853-0.805547-52.8384-2.4576-14.742187 82.752853-22.114987 131.4816-22.114987 146.2272 0 9.8304 3.6864 14.7456 11.055787 14.7456l33.181013-20.8896c37.669547-23.749973 76.991147-35.6352 117.9648-35.6352 61.44 0 109.765973 36.461227 144.9984 109.3632C783.14496 494.605653 797.0816 558.08 797.0816 626.8928z" p-id="11906"></path></svg>