<?xml version="1.0" standalone="no"?><!DOCTYPE svg PUBLIC "-//W3C//DTD SVG 1.1//EN" "http://www.w3.org/Graphics/SVG/1.1/DTD/svg11.dtd"><svg t="1491741397165" class="icon" style="" viewBox="0 0 1024 1024" version="1.1" xmlns="http://www.w3.org/2000/svg" p-id="12556" xmlns:xlink="http://www.w3.org/1999/xlink" width="200" height="200"><defs><style type="text/css"></style></defs><path d="M794.624 641.6384c0 88.4736-22.114987 169.171627-66.351787 242.0736-52.435627 84.384427-120.019627 126.5664-202.752 126.5664-108.1344 0-188.0064-59.787947-239.616-179.4048C248.210773 743.226027 229.376 636.320427 229.376 510.1568c0-131.058347 20.466347-239.192747 61.44-324.4032 54.0672-114.681173 138.8544-172.032 254.3616-172.032 70.447787 0 128.60416 25.402027 174.4896 76.1856 2.4576 2.4576 10.635947 7.3728 24.576 14.7456 30.296747 15.571627 45.4656 49.152 45.4656 100.7616 0 19.6608-4.109653 38.0928-12.291413 55.296-10.656427 21.312853-24.99584 31.9488-43.008 31.9488-21.312853 0-40.5504-11.461973-57.7536-34.4064-16.397653-22.923947-32.77824-45.4656-49.152-67.584-22.114987-23.749973-49.57184-35.6352-82.3296-35.6352-79.465813 0-126.5664 74.9568-141.308587 224.8704 40.953173-41.7792 92.562773-62.6688 154.825387-62.6688 76.1856 0 136.3968 36.461227 180.6336 109.3632C776.192 488.0384 794.624 559.732053 794.624 641.6384zM622.592 653.9264c0-40.127147-4.512427-75.359573-13.5168-105.6768-13.11744-44.2368-34.003627-66.3552-62.6688-66.3552-29.4912 0-56.122027 20.8896-79.872 62.6688-30.317227 52.435627-51.206827 82.3296-62.665387 89.7024 5.720747 52.435627 15.9744 98.304 30.72 137.6256 22.923947 59.805013 53.241173 89.7024 90.9312 89.7024 31.9488 0 56.927573-27.839147 74.9568-83.5584C615.2192 735.450453 622.592 694.074027 622.592 653.9264z" p-id="12557"></path></svg>