<?xml version="1.0" standalone="no"?><!DOCTYPE svg PUBLIC "-//W3C//DTD SVG 1.1//EN" "http://www.w3.org/Graphics/SVG/1.1/DTD/svg11.dtd"><svg t="1491741413913" class="icon" style="" viewBox="0 0 1024 1024" version="1.1" xmlns="http://www.w3.org/2000/svg" p-id="13207" xmlns:xlink="http://www.w3.org/1999/xlink" width="200" height="200"><defs><style type="text/css"></style></defs><path d="M965.4048 213.9264c0.912 46.6624-39.1872 148.8192-120.352 306.4736-56.9184 106.3552-113.84 213.1936-170.7232 320.4672C626.7456 941.6192 580.0768 992 534.3808 992c-29.8688 0-54.1184-12.5952-72.7712-37.7856-16.7936-21.4496-25.1872-47.1008-25.1872-76.9696 0-49.4368 31.248-128.2656 93.76-236.5024 49.4368-79.2832 98.4192-158.592 146.9344-237.9008 58.7744-96.08 88.1696-152.0576 88.1696-167.9296 0-17.712-12.1408-26.5888-36.3872-26.5888-36.3872 0-122.2336 21.472-257.4944 64.3744C388.3584 297.888 323.0688 313.2832 275.488 318.88l0 9.7984c0 59.7152-6.9952 114.2912-20.9888 163.728-19.5936 71.8528-49.92 107.7536-90.9632 107.7536-32.6688 0-59.2576-24.7072-79.7664-74.1664-16.7936-40.1024-25.1872-79.2864-25.1872-117.552 0-8.3968 4.1952-27.5072 12.592-57.376 17.712-67.1712 26.5888-126.8672 26.5888-179.1264 0-7.456-1.3984-16.7936-4.1952-27.9872-2.8-12.1152-4.1984-20.992-4.1984-26.5888 0-41.04 18.6528-61.5744 55.9776-61.5744 28.9056 0 56.4352 18.192 82.5664 54.576 1.856 4.6816 5.5968 11.68 11.1936 20.992 0.9152 3.7376 1.8592 7.4784 2.8 11.1936 24.2496 0 89.5616-16.3104 195.92-48.9792C574.9632 52.5344 673.8368 32 734.4928 32c61.5776 0 113.36 13.9936 155.3376 41.984C938.3328 106.6528 963.5264 153.2896 965.4048 213.9264z" p-id="13208"></path></svg>