<?xml version="1.0" standalone="no"?><!DOCTYPE svg PUBLIC "-//W3C//DTD SVG 1.1//EN" "http://www.w3.org/Graphics/SVG/1.1/DTD/svg11.dtd"><svg t="1491741463212" class="icon" style="" viewBox="0 0 1024 1024" version="1.1" xmlns="http://www.w3.org/2000/svg" p-id="14402" xmlns:xlink="http://www.w3.org/1999/xlink" width="200" height="200"><defs><style type="text/css"></style></defs><path d="M458.475458 64.490803c32.260751 0 64.537875 4.490268 96.814999 13.455453 39.442314 23.311939 76.193333 51.098795 110.270453 83.359546 37.643342 59.171658 57.356312 123.725906 59.156308 193.629999-1.799996 68.136843-24.203238 126.400828-67.229171 174.803211l34.968419 21.511943c34.045397 32.277124 61.83123 69.029166 83.36057 110.255103 21.511943 68.136843 16.130376 132.674719-16.131399 193.631022-53.789067 53.789067-118.343315 86.958514-193.631022 99.505271-78.884628 12.548804-152.404062 1.783623-220.524532-32.259728-41.24231-28.694529-59.172681-68.137867-53.79009-118.328989l16.146749-72.610738c21.496593-44.825928 48.39215-86.067214 80.669274-123.710556l-10.747785-2.691295-51.098795-29.585829c-59.171658-55.567573-89.649809-124.580367-91.433432-207.064986 1.783623-100.397594 38.534642-186.464809 110.255103-258.18527l53.789067-37.643342C417.250544 79.746252 436.963515 77.054957 458.475458 64.490803zM479.988424 104.841813c-23.311939 1.798972-44.824905 7.181563-64.537875 16.130376l-40.334637 37.643342c-39.458687 53.79009-59.171658 113.853048-59.171658 180.190919-1.799996 62.754253 20.60427 112.961748 67.229171 150.60509 53.79009 39.437198 114.744347 51.984978 182.881191 37.637202l8.057513-13.433964 37.659715 0 16.130376-13.455453c25.095561-30.478152 43.933605-66.321498 56.481386-107.563808 1.782599-46.607504 0-93.232404-5.382591-139.856281-25.095561-41.225937-55.573713-77.977979-91.433432-110.255103C555.29148 119.188566 519.431761 106.640786 479.988424 104.841813zM627.902218 559.325865l-32.260751 16.131399-64.554248 0-18.821671 18.821671-18.821671 16.146749c-39.458687 44.824905-66.353221 94.123704-80.684624 147.897422-8.965186 41.24231-3.582595 78.901001 16.146749 112.961748l32.260751 16.131399 18.821671 24.203238c89.649809 12.547781 169.426761-12.564154 239.346203-75.303057 28.694529-44.808532 35.860742-95.016027 21.529339-150.60509-17.929348-41.225937-43.933605-77.085656-77.994352-107.562784l-32.277124-16.131399L627.902218 559.325865z" p-id="14403"></path></svg>