<?xml version="1.0" standalone="no"?><!DOCTYPE svg PUBLIC "-//W3C//DTD SVG 1.1//EN" "http://www.w3.org/Graphics/SVG/1.1/DTD/svg11.dtd"><svg t="1491741521004" class="icon" style="" viewBox="0 0 1024 1024" version="1.1" xmlns="http://www.w3.org/2000/svg" p-id="17445" xmlns:xlink="http://www.w3.org/1999/xlink" width="200" height="200"><defs><style type="text/css"></style></defs><path d="M779.800255 533.923312c-19.756973-20.271696-42.140773-37.476543-66.590628-51.175543-2.780323-1.550309-5.567809-3.071965-8.356318-4.571109 19.764136-13.678534 37.678134-29.341259 53.587476-46.88175 33.094746-36.387745 49.870828-82.801844 49.870828-137.951909 0-34.945907-8.235568-67.448158-24.52251-96.697319-15.807011-28.176736-37.59013-52.506864-64.747653-72.310909-26.173103-19.107173-57.473993-34.152844-93.124957-44.738947-35.057447-10.302647-73.376171-15.526625-113.898073-15.526625-40.512692 0-78.855976 5.222955-114.097618 15.562441-35.434024 10.546194-66.718541 25.576515-93.019557 44.690852-27.199479 19.828604-48.958038 44.191478-64.652486 72.354911-16.303314 29.144784-24.570605 61.667501-24.570605 96.665597 0 54.268998 16.696264 100.418061 49.630351 137.179312 16.039301 17.900695 33.992185 33.835619 53.716412 47.703465-3.188622 1.782599-6.377244 3.605108-9.55768 5.463432-23.754007 13.915941-45.753043 31.200606-65.404616 51.41295-20.148899 20.800745-36.747949 45.028543-49.310056 71.974241-13.042037 27.9117-19.659759 60.694337-19.659759 97.435123 0 46.228881 10.327206 86.551238 30.579459 119.661334 19.676132 32.631188 46.51336 59.644425 79.817883 80.314187 31.780821 19.643386 67.911716 34.015721 107.424638 42.72508 38.358633 8.444323 78.431304 12.721743 119.104655 12.721743 39.785122 0 79.610152-4.270257 118.384247-12.70537 39.928385-8.716522 76.308967-23.087834 108.265796-42.796712 33.174564-20.668739 59.96472-47.675836 79.496565-80.07371 20.396539-33.343409 30.740118-73.664743 30.740118-119.846552 0-36.536125-6.624884-69.438489-19.61985-97.658204C816.748772 579.327408 800.10879 554.796712 779.800255 533.923312zM615.31811 336.475358c-5.823636 10.999518-13.355169 20.147876-22.936385 27.891234-11.175527 8.965186-23.865547 16.695241-38.566364 23.537066-13.147438 5.996574-27.118638 11.228739-41.635259 15.594163-14.083763-4.374634-28.031427-9.625218-41.434691-15.601326-15.237029-6.938016-28.080545-14.649652-39.119973-23.457248-9.661034-7.803733-17.168008-16.936741-22.959921-27.919886-5.231141-9.909697-7.882528-21.763676-7.882528-35.226293 0-24.515347 7.810896-42.524512 24.635073-56.712653 17.904789-15.161305 47.043433-22.848381 86.602404-22.848381 39.423895 0 68.51342 7.695263 86.522586 22.904663 16.808828 14.155395 24.635073 32.157397 24.635073 56.656371C623.178125 315.027883 620.614743 326.520635 615.31811 336.475358zM381.01783 651.445936c7.226588-13.855566 17.007349-26.357298 29.113061-37.193087 12.930497-11.600199 28.761044-21.906939 46.994314-30.615275 17.225313-8.191566 35.642778-15.253402 54.869678-21.041222 19.332301 5.840008 37.453007 12.857842 53.948703 20.88568 18.36937 8.988722 34.320667 19.398816 47.611367 31.127951 12.297071 10.666944 21.942755 22.783913 29.313629 36.688597 6.698562 13.006222 9.950629 27.058262 9.950629 42.952254 0 32.437783-10.446933 56.880475-31.989575 74.754564-22.904663 19.075451-59.516512 28.744671-108.811218 28.744671-48.660256 0-85.168752-9.718339-108.497063-28.880771-21.991874-18.065448-32.238238-41.779545-32.238238-74.617441C371.284141 678.175717 374.497323 664.127769 381.01783 651.445936z" p-id="17446"></path></svg>