<?xml version="1.0" standalone="no"?><!DOCTYPE svg PUBLIC "-//W3C//DTD SVG 1.1//EN" "http://www.w3.org/Graphics/SVG/1.1/DTD/svg11.dtd"><svg t="1494434052128" class="icon" style="" viewBox="0 0 1024 1024" version="1.1" xmlns="http://www.w3.org/2000/svg" p-id="1500" xmlns:xlink="http://www.w3.org/1999/xlink" width="200" height="200"><defs><style type="text/css"></style></defs><path d="M797.0816 91.136c0 5.741227-4.509013 24.576-13.5168 56.5248-36.05504 126.163627-63.08864 255.5904-81.1008 388.3008-9.024853 64.723627-17.62304 129.024-25.8048 192.9216-12.291413 81.926827-24.999253 145.421653-38.0928 190.464-18.029227 60.634453-46.291627 90.9312-84.7872 90.9312-26.228053 0-47.520427-14.7456-63.901013-44.2368-13.93664-24.576-20.886187-50.783573-20.886187-78.6432 0-50.783573 8.6016-125.740373 25.8048-224.8704-24.576 11.482453-45.062827 17.2032-61.44 17.2032-69.635413 0-123.303253-32.754347-160.9728-98.304C242.066773 528.186027 226.9184 463.885653 226.9184 388.5056c0-88.4736 19.237547-169.151147 57.7536-242.0736C331.3664 57.9584 395.264 13.7216 476.3648 13.7216c17.2032 0 35.211947 4.109653 54.070613 12.288 18.834773 8.198827 27.839147 12.288 27.0336 12.288 2.4576 0 5.720747-0.805547 9.8304-2.4576 4.089173-1.631573 7.3728-2.4576 9.8304-2.4576 15.55456 0 34.809173 14.342827 57.7536 43.008 19.6608-41.7792 49.152-62.6688 88.4736-62.6688 20.466347 0 37.669547 7.796053 51.6096 23.3472C789.7088 52.640427 797.0816 70.669653 797.0816 91.136zM594.3296 210.3296c-10.656427 0-23.770453-4.491947-39.325013-13.5168-15.571627-9.004373-29.4912-13.5168-41.775787-13.5168-76.1856 0-114.2784 65.952427-114.2784 197.8368 0 89.299627 18.432 133.9392 55.296 133.9392 16.377173 0 32.354987-6.144 47.9232-18.432 15.551147-13.093547 26.610347-27.839147 33.1776-44.2368 4.089173-17.2032 9.8304-42.181973 17.2032-74.9568C566.469973 317.658453 580.389547 261.9392 594.3296 210.3296z" p-id="1501"></path></svg>