<?xml version="1.0" standalone="no"?><!DOCTYPE svg PUBLIC "-//W3C//DTD SVG 1.1//EN" "http://www.w3.org/Graphics/SVG/1.1/DTD/svg11.dtd"><svg t="1491733752149" class="icon" style="" viewBox="0 0 1024 1024" version="1.1" xmlns="http://www.w3.org/2000/svg" p-id="13584" xmlns:xlink="http://www.w3.org/1999/xlink" width="200" height="200"><defs><style type="text/css"></style></defs><path d="M454 469.999l64 0 0-64-64 0L454 469.999zM326 277.999l-128 0 0 64 128 0L326 277.999zM710 277.999l-64 0 0 64 64 0L710 277.999zM326 469.999l64 0 0-64-64 0L326 469.999zM454 277.999l-64 0 0 64 64 0L454 277.999zM582 277.999l-64 0 0 64 64 0L582 277.999zM198 597.999l384 0 0-64-384 0L198 597.999zM262 405.999l-64 0 0 64 64 0L262 405.999zM774 533.999l-128 0 0 64 192 0 0-192-64 0L774 533.999zM950.002 149.998l-864.004 0c-8.837 0-16 7.165-16 16l0 608.005c0 8.837 7.163 16 16 16l864.003 0c8.835 0 16-7.163 16-16L966.001 165.998C966.002 157.162 958.837 149.998 950.002 149.998zM902 710.002c0 8.835-7.163 16-16 16l-736 0c-8.837 0-16-7.165-16-16L134 229.999c0-8.837 7.163-16 16-16l736 0c8.837 0 16 7.163 16 16L902 710.002zM646 405.999l-64 0 0 64 64 0L646 405.999zM774 341.999l64 0 0-64-64 0L774 341.999z" p-id="13585"></path></svg>