<?xml version="1.0" standalone="no"?><!DOCTYPE svg PUBLIC "-//W3C//DTD SVG 1.1//EN" "http://www.w3.org/Graphics/SVG/1.1/DTD/svg11.dtd"><svg t="1491733877989" class="icon" style="" viewBox="0 0 1024 1024" version="1.1" xmlns="http://www.w3.org/2000/svg" p-id="17214" xmlns:xlink="http://www.w3.org/1999/xlink" width="200" height="200"><defs><style type="text/css"></style></defs><path d="M143.002 921.068l200.396-71.689c25.063 7.99 53.737 1.975 74.313-18.492l534.641-562.551c28.236-28.237 28.236-74.204 0-102.44L808.322 22.193c-28.018-28.019-73.438-28.237-101.675-0.766L138.952 551.91l-1.094 1.094c-19.918 19.918-25.718 48.594-17.621 73.656L50.084 828.807c-5.801 16.637-1.534 35.238 10.943 47.717l33.819 33.818C107.542 922.93 126.148 927.086 143.002 921.068zM756.663 100.884l116.671 116.669L365.177 752.305 217.535 604.771 756.663 100.884zM189.955 707.43l72.998 73-112.291 40.168L189.955 707.43z" p-id="17215"></path><path d="M62.342 942.85l909.491 0 0 77.703-909.491 0 0-77.703Z" p-id="17216"></path></svg>